<?xml version="1.0" standalone="no"?>
<!DOCTYPE svg PUBLIC "-//W3C//DTD SVG 20010904//EN"
 "http://www.w3.org/TR/2001/REC-SVG-20010904/DTD/svg10.dtd">
<svg version="1.0" xmlns="http://www.w3.org/2000/svg"
 width="900.000000pt" height="900.000000pt" viewBox="0 0 900.000000 900.000000"
 preserveAspectRatio="xMidYMid meet">
<metadata>
Created by potrace 1.14, written by Peter Selinger 2001-2017
</metadata>
<g transform="translate(0.000000,900.000000) scale(0.100000,-0.100000)"
fill="#000000" stroke="none">
<path d="M0 4500 l0 -4500 4500 0 4500 0 0 4500 0 4500 -4500 0 -4500 0 0
-4500z m6684 3181 c8 -7 10 -607 8 -2200 l-2 -2191 -2193 2 -2192 3 -3 2185
c-1 1202 0 2191 3 2197 3 10 458 13 2186 13 1312 0 2186 -4 2193 -9z m-3773
-5278 c167 -219 317 -417 333 -440 17 -23 34 -42 39 -42 4 -1 7 197 7 439 l0
441 158 -3 157 -3 3 -727 2 -728 -142 0 -143 1 -152 202 c-84 111 -210 276
-279 367 -69 91 -154 202 -188 247 -33 46 -64 83 -68 83 -5 0 -8 -203 -8 -450
l0 -450 -160 2 -160 3 0 718 c0 394 0 722 0 727 0 6 57 10 149 10 l150 0 302
-397z m1287 370 c17 -25 127 -206 156 -258 50 -89 171 -285 176 -285 4 0 45
64 92 143 48 78 125 205 171 282 l85 140 181 3 c125 2 181 -1 181 -8 0 -6
-124 -205 -275 -442 l-275 -430 0 -289 0 -289 -165 0 -165 0 0 290 0 289 -270
425 c-148 233 -273 431 -276 440 -5 14 14 16 179 16 l186 0 19 -27z m1552
-448 c5 -459 6 -471 28 -526 28 -69 93 -136 158 -162 63 -24 173 -26 241 -3
68 23 126 75 160 144 l28 57 5 480 5 480 163 3 163 3 -3 -493 c-4 -461 -5
-498 -24 -563 -34 -117 -73 -184 -149 -261 -121 -121 -248 -166 -470 -167
-144 0 -218 15 -320 63 -152 72 -240 186 -292 380 -12 44 -16 151 -20 533 -3
263 -2 485 1 493 5 12 31 14 163 12 l158 -3 5 -470z"/>
<path d="M4640 6959 c0 -19 -66 -144 -106 -200 -47 -66 -105 -137 -204 -249
-173 -195 -249 -320 -286 -469 -37 -153 4 -310 112 -430 47 -52 183 -149 247
-176 l37 -15 -22 52 c-40 100 -50 166 -45 283 5 115 14 148 70 265 44 90 115
182 241 310 l106 109 -6 58 c-13 132 -54 299 -101 411 -23 56 -43 80 -43 51z"/>
<path d="M5051 6641 c-48 -95 -130 -193 -231 -278 -301 -253 -411 -462 -375
-709 12 -81 52 -214 65 -214 3 0 13 37 22 81 49 238 186 394 483 549 117 62
152 91 165 139 13 47 13 143 -1 217 -16 86 -80 274 -94 274 -3 0 -18 -26 -34
-59z"/>
<path d="M3977 6603 c-4 -3 -7 -16 -7 -28 0 -33 -70 -170 -141 -275 -66 -98
-80 -123 -100 -175 -97 -256 -7 -540 203 -647 99 -50 239 -83 328 -76 l42 3
-64 42 c-71 46 -160 133 -196 191 -66 107 -87 194 -78 322 8 116 36 202 103
313 34 57 35 59 22 105 -18 66 -78 209 -93 221 -7 6 -16 8 -19 4z"/>
<path d="M5415 6304 c-10 -20 -63 -76 -117 -125 -76 -69 -120 -100 -200 -140
-247 -124 -364 -230 -444 -405 -36 -78 -78 -223 -68 -233 12 -12 211 -3 276
13 88 20 182 63 252 115 168 124 292 380 321 661 3 30 7 76 10 103 7 56 -3 60
-30 11z"/>
<path d="M4162 5223 l3 -88 305 0 305 0 3 88 3 87 -311 0 -311 0 3 -87z"/>
<path d="M4290 5045 c0 -9 7 -70 15 -138 8 -67 24 -207 35 -312 11 -104 25
-228 30 -275 5 -47 17 -157 26 -245 18 -184 28 -231 50 -239 14 -5 54 9 54 19
0 7 49 405 60 485 11 87 44 344 65 510 8 63 16 135 17 160 l3 45 -177 3 c-155
2 -178 0 -178 -13z"/>
</g>
</svg>
